<svg xmlns="http://www.w3.org/2000/svg" width="48.597" height="48.597" viewBox="0 0 48.597 48.597"><defs><style>.a{fill:#f56400;}</style></defs><g transform="translate(-80.546 -124.627)"><path class="a" d="M104.845,173.224a24.3,24.3,0,1,1,24.3-24.3A24.327,24.327,0,0,1,104.845,173.224Zm0-46.6a22.3,22.3,0,1,0,22.3,22.3A22.324,22.324,0,0,0,104.845,126.627Z"/><path class="a" d="M105.547,158.755h-1.4a1.4,1.4,0,0,0-1.4-1.4H92.209V139.1H103a2.794,2.794,0,0,1,1.846.969,2.8,2.8,0,0,1,1.847-.969h10.79v18.253H106.951a1.405,1.405,0,0,0-1.4,1.4ZM93.609,140.5v15.449H103a2.832,2.832,0,0,1,1.144.393V141.906a1.4,1.4,0,0,0-1.4-1.4Zm13.338,0a1.4,1.4,0,0,0-1.4,1.4v14.413a2.8,2.8,0,0,1,1.144-.365h9.386V140.5Z"/><rect class="a" width="7.722" height="1.404" transform="translate(106.951 144.012)"/><rect class="a" width="7.722" height="1.404" transform="translate(106.951 147.522)"/><rect class="a" width="7.722" height="1.404" transform="translate(106.951 151.032)"/><rect class="a" width="7.722" height="1.404" transform="translate(95.017 144.012)"/><rect class="a" width="7.722" height="1.404" transform="translate(95.017 147.522)"/><rect class="a" width="7.722" height="1.404" transform="translate(95.017 151.032)"/></g></svg>