<svg xmlns="http://www.w3.org/2000/svg" width="50" height="50.001" viewBox="0 0 50 50.001"><defs><style>.a{fill:#f56400;}</style></defs><g transform="translate(-112.796 -116.302)"><path class="a" d="M137.8,166.3a25,25,0,1,1,25-25A25.029,25.029,0,0,1,137.8,166.3Zm0-48a23,23,0,1,0,23,23A23.026,23.026,0,0,0,137.8,118.3Z"/><rect class="a" width="3.821" height="1.528" transform="translate(126.26 140.138)"/><rect class="a" width="3.821" height="1.528" transform="translate(129.111 148.834) rotate(-45)"/><rect class="a" width="1.528" height="3.821" transform="translate(143.552 147.206) rotate(-45)"/><rect class="a" width="1.528" height="3.821" transform="translate(137.341 148.926)"/><rect class="a" width="3.821" height="1.528" transform="translate(146.129 140.138)"/><path class="a" d="M141.162,135.553v-2.675h0a3.057,3.057,0,1,0-6.114,0h0v2.827a6.036,6.036,0,0,0-2.9,5.2,6.114,6.114,0,0,0,12.227,0A6.207,6.207,0,0,0,141.162,135.553Zm-2.9,9.858a4.6,4.6,0,0,1-4.59-4.59,4.315,4.315,0,0,1,1.372-3.205,4.09,4.09,0,0,1,1.532-.995v-3.437h3.057v3.286a4.335,4.335,0,0,1,1.528.841,4.607,4.607,0,0,1-2.872,8.1h-.027Z"/><rect class="a" width="1.528" height="3.821" transform="translate(137.341 148.926)"/><rect class="a" width="1.528" height="3.821" transform="translate(137.341 148.926)"/><rect class="a" width="1.528" height="3.821" transform="translate(137.341 148.926)"/></g></svg>