<svg xmlns="http://www.w3.org/2000/svg" width="48.595" height="48.596" viewBox="0 0 48.595 48.596"><defs><style>.a{fill:#f56400;}</style></defs><g transform="translate(-130.885 -210.438)"><path class="a" d="M155.183,259.034a24.3,24.3,0,1,1,24.3-24.3A24.325,24.325,0,0,1,155.183,259.034Zm0-46.6a22.3,22.3,0,1,0,22.3,22.3A22.323,22.323,0,0,0,155.183,212.438Z"/><path class="a" d="M162.189,236.038a.753.753,0,0,0-1.506,0,5.467,5.467,0,1,1-10.934,0,.753.753,0,0,0-1.5-.054v.054a6.982,6.982,0,0,0,6.22,6.931V245.1H152.61a.753.753,0,1,0,0,1.506h5.214a.753.753,0,0,0,0-1.506H155.97v-2.132A6.98,6.98,0,0,0,162.189,236.038Z"/><path class="a" d="M155.217,240.631a4.266,4.266,0,0,1-4.262-4.261v-8.654a4.261,4.261,0,0,1,8.523,0v8.654A4.264,4.264,0,0,1,155.217,240.631Zm0-15.672a2.761,2.761,0,0,0-2.756,2.757v8.654a2.756,2.756,0,0,0,5.511.105q0-.053,0-.105v-8.654a2.759,2.759,0,0,0-2.755-2.756Z"/></g></svg>